# xmcd CD database file
#
# Track frame offsets:
#	150
#	20072
#	37755
#	77643
#	107539
#	136981
#	171466
#	206907
#	243721
#	273235
#	318601
#
# Disc length: 4639 seconds
#
# Revision: 0
# Processed by: cddbd v1.5.2PL0 Copyright (c) Steve Scherf et al.
# Submitted via: CDex 1.51
#
DISCID=9a121d0b
DTITLE=Tony Joe White - Live in Amsterdam
DYEAR=2010
DGENRE=Blues
TTITLE0=Rich Woman Blues
TTITLE1=Stockholm Blues
TTITLE2=As the Crow Flies
TTITLE3=Crack the Window Baby
TTITLE4=You're Gonna Look Good in Blues
TTITLE5=Roosevelt and Ira Lee
TTITLE6=The Guitar Don't Lie
TTITLE7=Feeling Snakey
TTITLE8=Rainy Night in Georgia
TTITLE9=Polk Salad Annie
TTITLE10=Steamy Windows
EXTD=YEAR: 2010
EXTT0=
EXTT1=
EXTT2=
EXTT3=
EXTT4=
EXTT5=
EXTT6=
EXTT7=
EXTT8=
EXTT9=
EXTT10=
PLAYORDER=
